<svg version="1.1" id="Layer_1" xmlns="http://www.w3.org/2000/svg" xmlns:xlink="http://www.w3.org/1999/xlink" x="0px" y="0px"
	 width="100%" viewBox="0 0 277 182" enable-background="new 0 0 277 182" xml:space="preserve">
<path fill="#E0F2D8" opacity="1.000000" stroke="none" 
	d="
M1.000000,138.000000 
	C1.000000,100.645775 1.000000,63.291542 1.393885,25.475445 
	C5.775288,26.338953 10.402328,27.284546 12.979808,23.624311 
	C15.873894,19.514471 19.358780,19.148434 23.621162,18.593370 
	C26.163754,18.262264 28.295467,16.220863 28.095682,12.564161 
	C27.687147,5.086669 25.569784,3.034610 17.001072,2.680932 
	C17.000263,1.896308 17.000132,1.448154 17.000000,1.000000 
	C75.354225,1.000000 133.708450,1.000000 192.540863,1.339505 
	C193.202316,3.794573 193.988220,6.081785 193.444626,7.990305 
	C192.279587,12.080475 190.089630,15.889611 189.051636,19.998806 
	C188.714905,21.331858 190.637665,23.252296 191.564804,24.882507 
	C192.256500,26.098707 193.212967,27.207003 193.676910,28.497980 
	C194.135727,29.774694 194.124649,31.220284 194.360794,32.880772 
	C195.999603,32.207508 197.045380,31.401096 198.084274,31.409863 
	C207.548218,31.489727 217.010712,31.727345 226.474396,31.867655 
	C227.421906,31.881702 228.412689,31.670729 229.317047,31.366789 
	C231.483063,30.638821 233.627045,29.836615 235.746216,28.980885 
	C237.354065,28.331629 239.438141,27.966232 240.385910,26.752617 
	C242.833801,23.618124 245.851089,24.237282 247.612625,26.304600 
	C249.694000,28.747305 251.705261,28.176825 254.332672,28.131678 
	C256.452515,30.310564 257.898224,32.997089 260.142303,34.227577 
	C264.202576,36.453922 265.562347,40.138752 265.834198,43.939171 
	C266.173553,48.682785 268.274048,49.167389 272.225403,48.038750 
	C272.463654,48.070744 272.932831,48.175926 273.022888,48.382149 
	C273.298340,48.846531 273.547760,49.001804 274.059662,49.314812 
	C275.505402,50.383617 276.752686,51.191807 278.000000,51.999996 
	C278.000000,84.354225 278.000000,116.708458 277.649017,149.485580 
	C275.011627,148.749603 272.620056,146.553040 270.473145,146.770630 
	C268.849060,146.935272 266.379669,150.204544 266.415466,152.050873 
	C266.450562,153.861572 269.000824,155.830551 270.790741,157.316162 
	C271.741119,158.104965 273.420288,158.015701 274.725250,158.312500 
	C275.797089,156.573730 276.898560,154.786865 278.000000,153.000000 
	C278.000000,162.976685 278.000000,172.953354 278.000000,183.000000 
	C225.645798,183.000000 173.291550,183.000000 120.498444,182.652130 
	C117.370384,180.564209 114.681190,178.824142 111.986290,176.716736 
	C111.980583,174.151443 111.980583,171.953491 111.980583,169.546875 
	C111.040718,169.368011 110.067406,168.957962 109.140503,169.044556 
	C104.669914,169.462189 100.414223,167.631302 98.763702,164.169662 
	C96.032677,158.441910 92.395607,162.526855 89.227943,162.187607 
	C88.697708,162.130829 87.634727,163.286987 87.567345,163.211731 
	C84.839470,160.164780 81.345123,162.886017 78.194832,162.012177 
	C75.030136,161.134338 71.300575,162.348480 67.813217,162.555908 
	C65.931770,162.667831 63.944572,162.224701 62.172501,162.681473 
	C59.093952,163.475006 50.254875,161.426880 48.090714,158.621399 
	C50.126904,152.851181 48.747475,147.917664 44.246033,145.027451 
	C39.513882,141.989105 34.070656,138.982285 28.652794,138.329300 
	C19.554144,137.232651 10.229538,138.010712 1.000000,138.000000 
M3.025631,43.770737 
	C2.973873,49.636559 7.186128,48.965603 10.987567,49.002895 
	C15.690684,49.049026 14.800203,45.628857 15.031811,42.755192 
	C15.410293,38.059193 12.445119,37.778332 8.469681,37.476334 
	C3.137221,35.828075 2.803395,39.115578 3.025631,43.770737 
M259.660675,175.353333 
	C262.425110,177.388092 265.754486,178.389954 267.925293,175.446686 
	C269.288879,173.597900 269.811584,169.910858 268.889984,167.871933 
	C267.398438,164.572159 263.778046,164.716782 260.681183,166.145844 
	C259.307007,166.779968 258.218292,168.032684 256.797089,168.259201 
	C256.300934,167.878571 255.843643,167.240387 255.302353,167.158676 
	C251.518768,166.587509 247.886551,167.059769 246.157120,170.933792 
	C244.778671,174.021591 247.502075,178.893387 251.282730,180.451782 
	C255.809464,182.317749 256.816681,178.549683 258.306732,175.680084 
	C258.449860,175.404465 258.767090,175.219238 259.660675,175.353333 
M17.036318,27.173489 
	C13.359178,28.092352 12.211793,30.640532 13.279883,33.957867 
	C14.496188,37.735535 18.161236,37.690987 20.733500,36.685291 
	C22.312187,36.068058 23.660547,32.972839 23.778765,30.913792 
	C24.004494,26.982107 20.889589,26.749197 17.036318,27.173489 
M262.833374,161.427948 
	C265.952301,157.563568 265.322357,153.399826 261.391418,153.278671 
	C259.668732,153.225586 256.584930,155.107224 256.368622,156.467926 
	C255.764114,160.270813 258.195618,162.162460 262.833374,161.427948 
z"/>
<path fill="#91AD84" opacity="1.000000" stroke="none" 
	d="
M91.000000,183.000000 
	C61.106228,183.000000 31.212456,183.000000 1.000000,183.000000 
	C1.000000,171.981155 1.000000,160.959229 1.348616,149.515228 
	C7.169062,151.133240 12.113235,149.296356 17.366764,147.020660 
	C20.162426,148.023819 22.587690,149.017242 25.005951,150.005463 
	C24.998947,150.000259 24.986061,149.988403 25.121359,150.284882 
	C26.161240,151.397278 27.065823,152.213211 27.981121,153.350952 
	C28.331266,154.502945 28.670694,155.333160 29.010120,156.163361 
	C29.349098,155.774292 29.688076,155.385239 30.320385,154.940704 
	C30.891041,154.567657 31.168369,154.250076 31.445700,153.932495 
	C30.650337,153.617737 29.854973,153.302979 28.803110,152.976425 
	C28.375433,152.964951 28.204256,152.965286 28.032936,152.602432 
	C28.011986,151.515396 27.991177,150.791534 28.176275,149.791443 
	C33.001217,145.690521 25.291506,146.599609 26.515249,143.694199 
	C28.635519,143.900604 31.309328,144.982300 33.141277,144.168610 
	C36.981697,142.462814 38.744549,144.320023 39.492786,147.230316 
	C40.589615,151.496445 41.100647,155.936584 41.540390,160.334671 
	C41.681519,161.746185 41.234600,163.900757 40.274220,164.540283 
	C39.364937,165.145798 37.237946,164.559402 35.989544,163.873154 
	C34.003902,162.781631 32.473042,160.569717 30.422714,159.991394 
	C29.042509,159.602066 26.614058,160.804565 25.561733,162.057114 
	C24.736744,163.039047 25.117474,165.225632 25.421690,166.787582 
	C25.476315,167.068054 27.764614,166.913467 29.359493,167.133286 
	C33.907566,169.351151 38.094341,170.470261 42.344440,166.995514 
	C42.524117,166.999695 42.883396,167.010757 43.299568,167.010437 
	C46.140266,166.345779 48.564789,165.681442 51.353851,165.134064 
	C56.404408,166.166977 61.076298,167.164093 65.779366,167.981934 
	C75.515923,169.675049 85.269066,171.272842 95.052826,173.258636 
	C97.149673,178.228836 91.947311,179.687927 91.000000,183.000000 
z"/>
<path fill="#92AD85" opacity="1.000000" stroke="none" 
	d="
M273.861237,49.054192 
	C273.547760,49.001804 273.298340,48.846531 273.043121,47.938755 
	C271.744141,42.976959 270.703156,38.599110 269.228333,34.372646 
	C267.968109,30.761051 266.258118,27.301033 264.653656,23.816986 
	C263.727600,21.806011 262.616364,19.880312 261.113647,17.008905 
	C258.486755,17.008905 254.758316,17.008905 250.938782,16.638075 
	C249.800461,15.547993 248.675858,14.118793 247.718369,14.223123 
	C240.788498,14.978212 233.892365,16.043116 226.992554,17.004608 
	C226.999573,16.999289 227.015900,16.992678 226.612152,16.994656 
	C224.285370,17.446238 222.341782,17.823183 220.443542,18.360384 
	C216.337936,19.522270 212.255585,20.766277 207.824783,21.868425 
	C200.359955,15.314674 202.440277,8.210279 206.000000,1.000000 
	C229.900513,1.000000 253.801025,1.000000 278.000000,1.000000 
	C278.000000,12.019100 278.000000,23.040892 277.640747,34.533249 
	C276.370911,35.267910 275.460297,35.532005 274.549713,35.796101 
	C274.597229,36.074337 274.644745,36.352573 274.692261,36.630806 
	C275.794861,36.753872 276.897430,36.876934 278.000000,37.000000 
	C278.000000,40.692909 278.000000,44.385818 277.587280,48.539375 
	C276.070129,49.018078 274.965668,49.036137 273.861237,49.054192 
z"/>
<path fill="#DDF1D5" opacity="1.000000" stroke="none" 
	d="
M205.536819,1.000000 
	C202.440277,8.210279 200.359955,15.314674 207.790115,22.248783 
	C209.062012,23.160566 210.029648,23.583725 211.280518,24.266602 
	C217.256744,24.786776 222.974976,25.507986 228.636749,25.197968 
	C236.802078,24.750862 244.926437,23.555069 253.083817,23.075159 
	C253.405716,24.975357 253.712067,26.479155 254.018417,27.982952 
	C251.705261,28.176825 249.694000,28.747305 247.612625,26.304600 
	C245.851089,24.237282 242.833801,23.618124 240.385910,26.752617 
	C239.438141,27.966232 237.354065,28.331629 235.746216,28.980885 
	C233.627045,29.836615 231.483063,30.638821 229.317047,31.366789 
	C228.412689,31.670729 227.421906,31.881702 226.474396,31.867655 
	C217.010712,31.727345 207.548218,31.489727 198.084274,31.409863 
	C197.045380,31.401096 195.999603,32.207508 194.360794,32.880772 
	C194.124649,31.220284 194.135727,29.774694 193.676910,28.497980 
	C193.212967,27.207003 192.256500,26.098707 191.564804,24.882507 
	C190.637665,23.252296 188.714905,21.331858 189.051636,19.998806 
	C190.089630,15.889611 192.279587,12.080475 193.444626,7.990305 
	C193.988220,6.081785 193.202316,3.794573 193.009521,1.339505 
	C197.024551,1.000000 201.049088,1.000000 205.536819,1.000000 
z"/>
<path fill="#92AD86" opacity="1.000000" stroke="none" 
	d="
M16.996365,147.010941 
	C12.113235,149.296356 7.169062,151.133240 1.348616,149.046570 
	C1.000000,147.933334 1.000000,146.866653 1.343421,145.443619 
	C2.908594,145.292557 4.130346,145.497864 5.352098,145.703171 
	C5.452524,145.272308 5.552949,144.841446 5.653376,144.410583 
	C4.102251,143.607056 2.551126,142.803528 1.000000,142.000000 
	C1.000000,140.933334 1.000000,139.866653 1.000000,138.399994 
	C10.229538,138.010712 19.554144,137.232651 28.652794,138.329300 
	C34.070656,138.982285 39.513882,141.989105 44.246033,145.027451 
	C48.747475,147.917664 50.126904,152.851181 47.851448,158.833618 
	C47.074604,160.830673 46.588238,162.221725 45.975197,163.937759 
	C44.860149,165.178726 43.871773,166.094742 42.883392,167.010757 
	C42.883396,167.010757 42.524117,166.999695 41.888077,166.984344 
	C39.168041,166.977219 37.084049,166.985428 34.959381,166.710602 
	C34.266785,166.308655 33.614861,166.189743 32.656464,165.934235 
	C31.240532,166.185013 30.131071,166.572388 29.021610,166.959747 
	C27.764614,166.913467 25.476315,167.068054 25.421690,166.787582 
	C25.117474,165.225632 24.736744,163.039047 25.561733,162.057114 
	C26.614058,160.804565 29.042509,159.602066 30.422714,159.991394 
	C32.473042,160.569717 34.003902,162.781631 35.989544,163.873154 
	C37.237946,164.559402 39.364937,165.145798 40.274220,164.540283 
	C41.234600,163.900757 41.681519,161.746185 41.540390,160.334671 
	C41.100647,155.936584 40.589615,151.496445 39.492786,147.230316 
	C38.744549,144.320023 36.981697,142.462814 33.141277,144.168610 
	C31.309328,144.982300 28.635519,143.900604 26.515249,143.694199 
	C25.291506,146.599609 33.001217,145.690521 27.804256,149.770752 
	C26.479574,150.013672 25.732819,150.001038 24.986061,149.988403 
	C24.986061,149.988403 24.998947,150.000259 24.961864,149.641693 
	C22.291611,148.175217 19.658443,147.067291 16.726868,145.689972 
	C13.690050,145.253769 10.951642,145.086960 8.213234,144.920135 
	C8.203324,145.294861 8.193414,145.669571 8.183504,146.044296 
	C11.108130,146.044296 14.032755,146.044296 16.963852,146.286087 
	C16.970322,146.527878 16.996365,147.010941 16.996365,147.010941 
z"/>
<path fill="#D4E6CC" opacity="1.000000" stroke="none" 
	d="
M17.001749,3.017401 
	C25.569784,3.034610 27.687147,5.086669 28.095682,12.564161 
	C28.295467,16.220863 26.163754,18.262264 23.621162,18.593370 
	C19.358780,19.148434 15.873894,19.514471 12.979808,23.624311 
	C10.402328,27.284546 5.775288,26.338953 1.393885,25.006788 
	C1.000000,22.299986 1.000000,19.599974 1.356825,16.375574 
	C3.674804,14.897565 5.648828,13.129045 7.594436,13.159772 
	C11.658466,13.223957 12.378785,11.293084 12.337790,7.938880 
	C14.111335,6.255858 15.556542,4.636630 17.001749,3.017401 
z"/>
<path fill="#E0F2D8" opacity="1.000000" stroke="none" 
	d="
M12.009453,8.002672 
	C12.378785,11.293084 11.658466,13.223957 7.594436,13.159772 
	C5.648828,13.129045 3.674804,14.897565 1.356825,15.925594 
	C1.000000,11.108770 1.000000,6.217542 1.000000,1.000000 
	C3.327549,1.000000 5.669041,1.000000 8.513309,1.366621 
	C10.013874,3.823052 11.011663,5.912862 12.009453,8.002672 
z"/>
<path fill="#D5E7CD" opacity="1.000000" stroke="none" 
	d="
M278.000000,152.625000 
	C276.898560,154.786865 275.797089,156.573730 274.725250,158.312500 
	C273.420288,158.015701 271.741119,158.104965 270.790741,157.316162 
	C269.000824,155.830551 266.450562,153.861572 266.415466,152.050873 
	C266.379669,150.204544 268.849060,146.935272 270.473145,146.770630 
	C272.620056,146.553040 275.011627,148.749603 277.649017,149.954239 
	C278.000000,150.750000 278.000000,151.500000 278.000000,152.625000 
z"/>
<path fill="#98B28D" opacity="1.000000" stroke="none" 
	d="
M91.460632,183.000000 
	C91.947311,179.687927 97.149673,178.228836 95.455994,173.255219 
	C99.221046,173.660355 102.620392,174.417694 106.011963,175.554779 
	C105.002800,178.289688 104.001396,180.644852 103.000000,183.000000 
	C99.307091,183.000000 95.614182,183.000000 91.460632,183.000000 
z"/>
<path fill="#93AE86" opacity="1.000000" stroke="none" 
	d="
M111.991997,177.084091 
	C114.681190,178.824142 117.370384,180.564209 120.029785,182.652130 
	C116.969406,183.000000 113.938812,183.000000 110.396896,182.681000 
	C109.589470,180.602844 109.293381,178.843689 109.367859,177.016479 
	C110.489616,176.993637 111.240807,177.038864 111.991997,177.084091 
z"/>
<path fill="#DBEDD3" opacity="1.000000" stroke="none" 
	d="
M12.337790,7.938880 
	C11.011663,5.912862 10.013874,3.823052 9.008042,1.366621 
	C11.370557,1.000000 13.741115,1.000000 16.555836,1.000000 
	C17.000132,1.448154 17.000263,1.896308 17.001072,2.680932 
	C15.556542,4.636630 14.111335,6.255858 12.337790,7.938880 
z"/>
<path fill="#92AD85" opacity="1.000000" stroke="none" 
	d="
M108.997299,177.084549 
	C109.293381,178.843689 109.589470,180.602844 109.942780,182.681000 
	C107.958336,183.000000 105.916664,183.000000 103.437500,183.000000 
	C104.001396,180.644852 105.002800,178.289688 106.315712,175.572205 
	C107.417252,175.834747 108.207275,176.459641 108.997299,177.084549 
z"/>
<path fill="#91AD84" opacity="1.000000" stroke="none" 
	d="
M1.000000,142.375000 
	C2.551126,142.803528 4.102251,143.607056 5.653376,144.410583 
	C5.552949,144.841446 5.452524,145.272308 5.352098,145.703171 
	C4.130346,145.497864 2.908594,145.292557 1.343421,145.043625 
	C1.000000,144.250000 1.000000,143.500000 1.000000,142.375000 
z"/>
<path fill="#93AE86" opacity="1.000000" stroke="none" 
	d="
M274.059662,49.314812 
	C274.965668,49.036137 276.070129,49.018078 277.587280,49.000008 
	C278.000000,49.750000 278.000000,50.500000 278.000000,51.624996 
	C276.752686,51.191807 275.505402,50.383617 274.059662,49.314812 
z"/>
<path fill="#93AE86" opacity="1.000000" stroke="none" 
	d="
M278.000000,36.666668 
	C276.897430,36.876934 275.794861,36.753872 274.692261,36.630806 
	C274.644745,36.352573 274.597229,36.074337 274.549713,35.796101 
	C275.460297,35.532005 276.370911,35.267910 277.640747,35.001907 
	C278.000000,35.444447 278.000000,35.888889 278.000000,36.666668 
z"/>
<path fill="#DAF0D2" opacity="1.000000" stroke="none" 
	d="
M109.367859,177.016479 
	C108.207275,176.459641 107.417252,175.834747 106.323486,175.192444 
	C102.620392,174.417694 99.221046,173.660355 95.418541,172.906433 
	C85.269066,171.272842 75.515923,169.675049 65.779366,167.981934 
	C61.076298,167.164093 56.404408,166.166977 51.022255,164.982513 
	C48.918030,164.346909 47.509949,163.979843 46.101868,163.612793 
	C46.588238,162.221725 47.074604,160.830673 47.800240,159.227371 
	C50.254875,161.426880 59.093952,163.475006 62.172501,162.681473 
	C63.944572,162.224701 65.931770,162.667831 67.813217,162.555908 
	C71.300575,162.348480 75.030136,161.134338 78.194832,162.012177 
	C81.345123,162.886017 84.839470,160.164780 87.567345,163.211731 
	C87.634727,163.286987 88.697708,162.130829 89.227943,162.187607 
	C92.395607,162.526855 96.032677,158.441910 98.763702,164.169662 
	C100.414223,167.631302 104.669914,169.462189 109.140503,169.044556 
	C110.067406,168.957962 111.040718,169.368011 111.980583,169.546875 
	C111.980583,171.953491 111.980583,174.151443 111.986290,176.716736 
	C111.240807,177.038864 110.489616,176.993637 109.367859,177.016479 
z"/>
<path fill="#93AE86" opacity="1.000000" stroke="none" 
	d="
M253.068268,22.678761 
	C244.926437,23.555069 236.802078,24.750862 228.636749,25.197968 
	C222.974976,25.507986 217.256744,24.786776 211.528442,24.006737 
	C216.667389,21.322330 221.841644,19.157505 227.015900,16.992678 
	C227.015900,16.992678 226.999573,16.999289 227.421906,17.012960 
	C229.559601,17.015041 231.274963,17.003448 233.274933,17.230808 
	C236.040604,20.019896 245.221115,21.168434 247.992661,19.153660 
	C248.549744,18.748672 248.673172,17.747145 249.335251,17.020695 
	C250.125931,17.016788 250.577896,17.012846 251.029877,17.008904 
	C254.758316,17.008905 258.486755,17.008905 261.113647,17.008905 
	C262.616364,19.880312 263.727600,21.806011 264.653656,23.816986 
	C266.258118,27.301033 267.968109,30.761051 269.228333,34.372646 
	C270.703156,38.599110 271.744141,42.976959 272.953064,47.732533 
	C272.932831,48.175926 272.463654,48.070744 272.065887,47.737984 
	C269.391510,42.040855 266.472656,36.845623 265.004028,31.268499 
	C263.244873,24.588089 260.354523,21.933502 253.068268,22.678761 
z"/>
<path fill="#D7E8CE" opacity="1.000000" stroke="none" 
	d="
M259.003479,174.992065 
	C258.767090,175.219238 258.449860,175.404465 258.306732,175.680084 
	C256.816681,178.549683 255.809464,182.317749 251.282730,180.451782 
	C247.502075,178.893387 244.778671,174.021591 246.157120,170.933792 
	C247.886551,167.059769 251.518768,166.587509 255.302353,167.158676 
	C255.843643,167.240387 256.300934,167.878571 256.906342,168.994263 
	C257.678223,171.483582 258.340851,173.237823 259.003479,174.992065 
z"/>
<path fill="#D7EECD" opacity="1.000000" stroke="none" 
	d="
M253.083817,23.075161 
	C260.354523,21.933502 263.244873,24.588089 265.004028,31.268499 
	C266.472656,36.845623 269.391510,42.040855 271.827637,47.705990 
	C268.274048,49.167389 266.173553,48.682785 265.834198,43.939171 
	C265.562347,40.138752 264.202576,36.453922 260.142303,34.227577 
	C257.898224,32.997089 256.452515,30.310564 254.332672,28.131676 
	C253.712067,26.479155 253.405716,24.975357 253.083817,23.075161 
z"/>
<path fill="#D2E4CA" opacity="1.000000" stroke="none" 
	d="
M259.332092,175.172699 
	C258.340851,173.237823 257.678223,171.483582 257.007812,169.366974 
	C258.218292,168.032684 259.307007,166.779968 260.681183,166.145844 
	C263.778046,164.716782 267.398438,164.572159 268.889984,167.871933 
	C269.811584,169.910858 269.288879,173.597900 267.925293,175.446686 
	C265.754486,178.389954 262.425110,177.388092 259.332092,175.172699 
z"/>
<path fill="#D2E4CA" opacity="1.000000" stroke="none" 
	d="
M17.441704,27.110340 
	C20.889589,26.749197 24.004494,26.982107 23.778765,30.913792 
	C23.660547,32.972839 22.312187,36.068058 20.733500,36.685291 
	C18.161236,37.690987 14.496188,37.735535 13.279883,33.957867 
	C12.211793,30.640532 13.359178,28.092352 17.441704,27.110340 
z"/>
<path fill="#D4E6CC" opacity="1.000000" stroke="none" 
	d="
M9.021066,37.977562 
	C12.445119,37.778332 15.410293,38.059193 15.031811,42.755192 
	C14.800203,45.628857 15.690684,49.049026 10.987567,49.002895 
	C7.186128,48.965603 2.973873,49.636559 3.440599,43.378891 
	C7.633917,43.437782 9.427991,41.842445 9.021066,37.977562 
z"/>
<path fill="#D2E4CA" opacity="1.000000" stroke="none" 
	d="
M262.482544,161.595474 
	C258.195618,162.162460 255.764114,160.270813 256.368622,156.467926 
	C256.584930,155.107224 259.668732,153.225586 261.391418,153.278671 
	C265.322357,153.399826 265.952301,157.563568 262.482544,161.595474 
z"/>
<path fill="#CADCC2" opacity="1.000000" stroke="none" 
	d="
M8.745373,37.726948 
	C9.427991,41.842445 7.633917,43.437782 3.449995,42.978874 
	C2.803395,39.115578 3.137221,35.828075 8.745373,37.726948 
z"/>
<path fill="#7C976E" opacity="1.000000" stroke="none" 
	d="
M29.359493,167.133286 
	C30.131071,166.572388 31.240532,166.185013 32.850853,166.151581 
	C33.901161,166.668228 34.450607,166.830933 35.000053,166.993637 
	C37.084049,166.985428 39.168041,166.977219 41.708401,166.980164 
	C38.094341,170.470261 33.907566,169.351151 29.359493,167.133286 
z"/>
<path fill="#7C976E" opacity="1.000000" stroke="none" 
	d="
M17.025276,145.959366 
	C19.658443,147.067291 22.291611,148.175217 24.968868,149.646912 
	C22.587690,149.017242 20.162426,148.023819 17.366764,147.020660 
	C16.996365,147.010941 16.970322,146.527878 16.982059,146.265839 
	C16.993795,146.003799 17.025276,145.959366 17.025276,145.959366 
z"/>
<path fill="#7C976E" opacity="1.000000" stroke="none" 
	d="
M45.975197,163.937744 
	C47.509949,163.979843 48.918030,164.346909 50.657711,164.865540 
	C48.564789,165.681442 46.140266,166.345779 43.299568,167.010437 
	C43.871773,166.094742 44.860149,165.178726 45.975197,163.937744 
z"/>
<path fill="#7C976E" opacity="1.000000" stroke="none" 
	d="
M25.121359,150.284882 
	C25.732819,150.001038 26.479574,150.013672 27.598351,150.046997 
	C27.991177,150.791534 28.011986,151.515396 28.017155,152.618744 
	C28.001514,152.998230 27.970402,153.029144 27.970404,153.029144 
	C27.065823,152.213211 26.161240,151.397278 25.121359,150.284882 
z"/>
<path fill="#7C976E" opacity="1.000000" stroke="none" 
	d="
M30.027054,154.996170 
	C29.688076,155.385239 29.349098,155.774292 29.010120,156.163361 
	C28.670694,155.333160 28.331266,154.502945 27.981119,153.350952 
	C27.970402,153.029144 28.001514,152.998230 28.017296,152.981918 
	C28.204256,152.965286 28.375433,152.964951 28.896023,153.239380 
	C29.505974,154.008148 29.766514,154.502167 30.027054,154.996170 
z"/>
<path fill="#92AD86" opacity="1.000000" stroke="none" 
	d="
M30.320385,154.940704 
	C29.766514,154.502167 29.505974,154.008148 29.152523,153.251190 
	C29.854973,153.302979 30.650337,153.617737 31.445700,153.932495 
	C31.168369,154.250076 30.891041,154.567657 30.320385,154.940704 
z"/>
<path fill="#7C976E" opacity="1.000000" stroke="none" 
	d="
M226.612152,16.994656 
	C221.841644,19.157505 216.667389,21.322330 211.245209,23.747021 
	C210.029648,23.583725 209.062012,23.160566 208.129044,22.357048 
	C212.255585,20.766277 216.337936,19.522270 220.443542,18.360384 
	C222.341782,17.823183 224.285370,17.446238 226.612152,16.994656 
z"/>
<path fill="#7C976E" opacity="1.000000" stroke="none" 
	d="
M232.990311,16.991856 
	C231.274963,17.003448 229.559601,17.015041 227.414902,17.018280 
	C233.892365,16.043116 240.788498,14.978212 247.718369,14.223123 
	C248.675858,14.118793 249.800461,15.547993 250.938782,16.638073 
	C250.577896,17.012846 250.125931,17.016788 249.094025,16.723616 
	C243.229477,13.594011 238.105972,15.185227 232.990311,16.991856 
z"/>
<path fill="#7C976E" opacity="1.000000" stroke="none" 
	d="
M16.975588,146.024048 
	C14.032755,146.044296 11.108130,146.044296 8.183504,146.044296 
	C8.193414,145.669571 8.203324,145.294861 8.213234,144.920135 
	C10.951642,145.086960 13.690050,145.253769 16.726868,145.689972 
	C17.025276,145.959366 16.993795,146.003799 16.975588,146.024048 
z"/>
<path fill="#91AD84" opacity="1.000000" stroke="none" 
	d="
M34.959381,166.710602 
	C34.450607,166.830933 33.901161,166.668228 33.157326,166.288177 
	C33.614861,166.189743 34.266785,166.308655 34.959381,166.710602 
z"/>
<path fill="#92AD85" opacity="1.000000" stroke="none" 
	d="
M233.274933,17.230808 
	C238.105972,15.185227 243.229477,13.594011 248.755325,16.723579 
	C248.673172,17.747145 248.549744,18.748672 247.992661,19.153660 
	C245.221115,21.168434 236.040604,20.019896 233.274933,17.230808 
z"/>
</svg>